<?xml version="1.0" standalone="no"?>
<!DOCTYPE svg PUBLIC "-//W3C//DTD SVG 20010904//EN"
 "http://www.w3.org/TR/2001/REC-SVG-20010904/DTD/svg10.dtd">
<svg version="1.0" xmlns="http://www.w3.org/2000/svg"
 width="160.000000pt" height="160.000000pt" viewBox="0 0 160.000000 160.000000"
 preserveAspectRatio="xMidYMid meet">
<metadata>
Created by potrace 1.11, written by Peter Selinger 2001-2013
</metadata>
<g transform="translate(0.000000,160.000000) scale(0.100000,-0.100000)"
fill="#000000" stroke="none">
<path d="M1255 1395 c-24 -27 -24 -27 -99 -15 -41 7 -86 10 -100 8 -14 -3 -23
-1 -20 3 5 9 -141 14 -316 10 -196 -4 -447 -52 -519 -99 -22 -14 -38 -28 -36
-31 3 -2 0 -10 -6 -18 -9 -10 -8 -13 2 -13 8 -1 28 -12 44 -26 28 -24 28 -26
7 -21 -18 4 -22 2 -18 -9 4 -10 -2 -14 -19 -14 -35 0 -32 -28 2 -32 23 -2 29
-10 36 -43 16 -70 107 -447 128 -530 12 -44 23 -120 26 -170 8 -126 28 -160
123 -209 129 -66 417 -78 590 -24 49 15 128 66 141 90 6 11 15 61 19 112 6 58
43 229 100 457 50 200 94 376 97 390 4 20 -3 32 -33 58 -20 18 -49 37 -65 43
-24 8 -26 13 -22 48 5 32 2 40 -16 49 -18 10 -25 8 -46 -14z"/>
</g>
</svg>
